<?xml version="1.0" encoding="utf-8"?><svg xmlns="http://www.w3.org/2000/svg" xmlns:xlink="http://www.w3.org/1999/xlink"><symbol viewBox="0 0 30 30" id="facebook" xmlns="http://www.w3.org/2000/svg"><path d="M26 1H5C3.3 1 2 2.3 2 4v21c0 1.7 1.3 3 3 3h10.5V17.5h-3v-3.7h3v-3.1c0-3.2 1.8-5.5 5.6-5.5h2.7v3.9H22c-1.5 0-2.1 1.1-2.1 2.2v2.5h3.9l-.8 3.7h-3V28h6c1.7 0 3-1.3 3-3V4c0-1.7-1.3-3-3-3z"/></symbol><symbol viewBox="0 0 30 30" id="twitter" xmlns="http://www.w3.org/2000/svg"><path d="M26.2 9.6v.7c0 7.5-5.7 16.1-16.1 16.1-3.2 0-6.2-.9-8.7-2.5.4 0 .9.1 1.4.1 2.7 0 5.1-.9 7-2.4-2.5 0-4.6-1.7-5.3-3.9.3.1.7.1 1.1.1.5 0 1-.1 1.5-.2-2.6-.6-4.6-2.9-4.6-5.6v-.1c.8.4 1.6.7 2.6.7a5.6 5.6 0 01-2.5-4.7c0-1 .3-2 .8-2.8 2.8 3.4 7 5.7 11.7 5.9-.1-.4-.1-.8-.1-1.3C15 6.6 17.5 4 20.7 4c1.6 0 3.1.7 4.1 1.8 1.3-.3 2.5-.7 3.6-1.4-.4 1.3-1.3 2.4-2.5 3.1 1-.1 2.1-.4 3.1-.8-.8 1.1-1.7 2.1-2.8 2.9z"/></symbol><symbol viewBox="0 0 30 30" id="vivo" xmlns="http://www.w3.org/2000/svg"><path d="M28.9 8.8c-1.5 8.7-9.9 16-12.5 17.7-2.5 1.7-4.8-.7-5.7-2.4-1-2-3.8-13-4.6-13.9-.8-.9-3 .9-3 .9L2 9.5s4.6-5.6 8.1-6.3c3.7-.7 3.7 5.8 4.6 9.4.9 3.5 1.4 5.5 2.2 5.5s2.2-2 3.8-5c1.6-3-.1-5.7-3.2-3.8 1.2-7.4 12.9-9.2 11.4-.5z"/></symbol><symbol viewBox="0 0 30 30" id="youtube" xmlns="http://www.w3.org/2000/svg"><path d="M15 3C.3 3 0 4.3 0 14.6s.3 11.6 15 11.6 15-1.3 15-11.5S29.7 3 15 3zm4.8 12.1l-6.7 3.1c-.6.3-1.1 0-1.1-.7v-5.9c0-.6.5-1 1.1-.7l6.7 3.1c.6.3.6.8 0 1.1z"/></symbol></svg>